<svg version="1.1" viewBox="0.0 0.0 159.3727034120735 159.3727034120735" fill="none" stroke="none" stroke-linecap="square" stroke-miterlimit="10" xmlns:xlink="http://www.w3.org/1999/xlink" xmlns="http://www.w3.org/2000/svg"><clipPath id="p.0"><path d="m0 0l159.3727 0l0 159.3727l-159.3727 0l0 -159.3727z" clip-rule="nonzero"/></clipPath><g clip-path="url(#p.0)"><path fill="#000000" fill-opacity="0.0" d="m0 0l159.3727 0l0 159.3727l-159.3727 0z" fill-rule="evenodd"/><path fill="#000000" fill-opacity="0.0" d="m6.391076 37.116405l0 0c0 -16.872011 13.677466 -30.549477 30.549477 -30.549477l85.92467 0l0 0c8.102234 0 15.872604 3.218596 21.601746 8.947735c5.729141 5.7291374 8.947739 13.499516 8.947739 21.601742l0 85.16876c0 16.87201 -13.677475 30.549469 -30.549484 30.549469l-85.92467 0c-16.87201 0 -30.549477 -13.67746 -30.549477 -30.549469z" fill-rule="evenodd"/><path stroke="#000000" stroke-width="8.0" stroke-linejoin="round" stroke-linecap="butt" d="m6.391076 37.116405l0 0c0 -16.872011 13.677466 -30.549477 30.549477 -30.549477l85.92467 0l0 0c8.102234 0 15.872604 3.218596 21.601746 8.947735c5.729141 5.7291374 8.947739 13.499516 8.947739 21.601742l0 85.16876c0 16.87201 -13.677475 30.549469 -30.549484 30.549469l-85.92467 0c-16.87201 0 -30.549477 -13.67746 -30.549477 -30.549469z" fill-rule="evenodd"/><path fill="#000000" fill-opacity="0.0" d="m28.944082 42.44038l0 0c0 -6.0186005 4.879038 -10.897638 10.897638 -10.897638l0 0c2.890232 0 5.6620903 1.1481419 7.7057953 3.191843c2.0437012 2.043705 3.1918411 4.815563 3.1918411 7.7057953l0 0c0 6.0186005 -4.879036 10.897636 -10.897636 10.897636l0 0c-6.0186005 0 -10.897638 -4.879036 -10.897638 -10.897636z" fill-rule="evenodd"/><path stroke="#000000" stroke-width="8.0" stroke-linejoin="round" stroke-linecap="butt" d="m28.944082 42.44038l0 0c0 -6.0186005 4.879038 -10.897638 10.897638 -10.897638l0 0c2.890232 0 5.6620903 1.1481419 7.7057953 3.191843c2.0437012 2.043705 3.1918411 4.815563 3.1918411 7.7057953l0 0c0 6.0186005 -4.879036 10.897636 -10.897636 10.897636l0 0c-6.0186005 0 -10.897638 -4.879036 -10.897638 -10.897636z" fill-rule="evenodd"/><path fill="#000000" fill-opacity="0.0" d="m28.939661 63.070892l21.795275 0l0 65.76378l-21.795275 0z" fill-rule="evenodd"/><path stroke="#000000" stroke-width="8.0" stroke-linejoin="round" stroke-linecap="butt" d="m28.939661 63.070892l21.795275 0l0 65.76378l-21.795275 0z" fill-rule="evenodd"/><path fill="#000000" fill-opacity="0.0" d="m63.319622 63.0532l22.110722 0l0 8.948631l1.8967209 -2.5245438l3.4751053 -3.7934418l3.3690033 -1.7861862l4.102928 -1.6845016l4.213463 -0.95056915l4.102928 0.31832886l3.5812225 0.20780182l2.422844 0.6322403l2.6306534 0.7383499l2.5289612 1.3661652l2.6306458 1.3705978l2.8428726 2.6306458l1.2644806 1.6845016l1.578392 2.1089401l1.7906113 3.3689957l1.2600555 3.7890244l0.84446716 2.9489822l0.52612305 5.0534973l0.10610962 3.3690033l0.10168457 3.3689957l0 34.950058l-22.318512 0l0 -35.900627l0 -1.9984131l-0.31391144 -2.422844l-0.95056915 -2.9489822l-1.1539536 -2.6306534l-1.4766998 -1.6845016l-1.158371 -1.0522537l-1.7906113 -0.7383499l-1.9984055 -0.5261307l-2.4228516 -0.20780182l-2.316742 0l-2.6306458 0.94615173l-1.8967209 1.4722748l-1.6845016 1.2644806l-1.1539459 1.3705902l-0.84445953 1.578392l-0.7383499 1.6845016l-0.42002106 1.578392l-0.21221924 1.8967209l0.10610962 1.7861862l0 36.745087l-22.212414 0z" fill-rule="evenodd"/><path stroke="#000000" stroke-width="8.0" stroke-linejoin="round" stroke-linecap="butt" d="m63.319622 63.0532l22.110722 0l0 8.948631l1.8967209 -2.5245438l3.4751053 -3.7934418l3.3690033 -1.7861862l4.102928 -1.6845016l4.213463 -0.95056915l4.102928 0.31832886l3.5812225 0.20780182l2.422844 0.6322403l2.6306534 0.7383499l2.5289612 1.3661652l2.6306458 1.3705978l2.8428726 2.6306458l1.2644806 1.6845016l1.578392 2.1089401l1.7906113 3.3689957l1.2600555 3.7890244l0.84446716 2.9489822l0.52612305 5.0534973l0.10610962 3.3690033l0.10168457 3.3689957l0 34.950058l-22.318512 0l0 -35.900627l0 -1.9984131l-0.31391144 -2.422844l-0.95056915 -2.9489822l-1.1539536 -2.6306534l-1.4766998 -1.6845016l-1.158371 -1.0522537l-1.7906113 -0.7383499l-1.9984055 -0.5261307l-2.4228516 -0.20780182l-2.316742 0l-2.6306458 0.94615173l-1.8967209 1.4722748l-1.6845016 1.2644806l-1.1539459 1.3705902l-0.84445953 1.578392l-0.7383499 1.6845016l-0.42002106 1.578392l-0.21221924 1.8967209l0.10610962 1.7861862l0 36.745087l-22.212414 0z" fill-rule="evenodd"/></g></svg>